<?xml version="1.0" standalone="no"?>
<!DOCTYPE svg PUBLIC "-//W3C//DTD SVG 20010904//EN"
 "http://www.w3.org/TR/2001/REC-SVG-20010904/DTD/svg10.dtd">
<svg version="1.0" xmlns="http://www.w3.org/2000/svg"
 width="1142.000000pt" height="1997.530980pt" viewBox="0 0 1142.000000 1997.530980"
 preserveAspectRatio="xMidYMid meet">
<metadata>
Created by potrace 1.12, written by Peter Selinger 2001-2015
</metadata>
<g id="logo-fill" transform="translate(-1.500000,1999.030980) scale(0.100000,-0.100000)"
fill="#b83232" stroke="none">
<path d="M833 19975 c-222 -40 -397 -136 -554 -303 -120 -128 -193 -262 -242
-445 l-22 -82 0 -9225 0 -9225 23 -80 c83 -289 303 -507 587 -582 68 -17 240
-18 5105 -18 4819 0 5038 1 5100 18 93 26 235 98 308 158 127 103 234 267 279
429 17 63 18 419 18 9295 0 8806 -1 9233 -18 9305 -94 398 -421 699 -824 759
-115 17 -9664 13 -9760 -4z m7607 -1340 l0 -345 -925 0 -925 0 0 -3660 0
-3660 835 0 835 0 0 -370 0 -370 -835 0 -835 0 0 -4230 0 -4230 930 0 930 0 0
-375 0 -375 -1410 0 -1410 0 0 8980 0 8980 1405 0 1405 0 0 -345z m1970 -8635
l0 -8980 -470 0 -470 0 0 8980 0 8980 470 0 470 0 0 -8980z m-7419 8960 c685
-50 1217 -348 1439 -805 106 -218 152 -431 170 -785 12 -233 12 -8484 0 -8705
-10 -183 -33 -387 -55 -475 -7 -30 -16 -72 -19 -92 -22 -125 -123 -366 -208
-491 -163 -243 -531 -469 -923 -566 -244 -61 -280 -63 -862 -68 l-543 -5 0
-2969 0 -2969 -472 2 -473 3 -3 8955 c-1 4925 0 8961 3 8968 3 9 195 12 912
12 499 0 965 -5 1034 -10z"/>
<path d="M1980 12979 l0 -5501 333 4 c319 4 336 5 444 31 299 72 525 189 693
358 114 114 169 231 190 399 14 120 14 9136 -1 9338 -26 354 -112 551 -292
666 -138 88 -294 152 -454 185 -94 19 -134 21 -507 21 l-406 0 0 -5501z"/>
</g>
</svg>
